<svg width="1264" height="485" viewBox="0 0 1264 485" fill="none" xmlns="http://www.w3.org/2000/svg">
<rect width="1264" height="485" rx="10" fill="white"/>
<path d="M18.8879 244.263L44.6986 270.073C45.2956 270.671 46.0925 271 46.9422 271C47.7919 271 48.5889 270.671 49.1858 270.073L51.0866 268.173C52.3235 266.935 52.3235 264.922 51.0866 263.686L29.4127 242.012L51.1107 220.314C51.7076 219.717 52.0372 218.92 52.0372 218.071C52.0372 217.221 51.7076 216.424 51.1107 215.826L49.2099 213.927C48.6124 213.329 47.816 213 46.9663 213C46.1166 213 45.3197 213.329 44.7227 213.927L18.8879 239.76C18.2895 240.36 17.9609 241.16 17.9627 242.011C17.9609 242.865 18.2895 243.664 18.8879 244.263Z" fill="black"/>
<path d="M1250.11 239.737L1224.3 213.927C1223.7 213.329 1222.91 213 1222.06 213C1221.21 213 1220.41 213.329 1219.81 213.927L1217.91 215.827C1216.68 217.065 1216.68 219.078 1217.91 220.314L1239.59 241.988L1217.89 263.686C1217.29 264.283 1216.96 265.08 1216.96 265.929C1216.96 266.779 1217.29 267.576 1217.89 268.174L1219.79 270.073C1220.39 270.671 1221.18 271 1222.03 271C1222.88 271 1223.68 270.671 1224.28 270.073L1250.11 244.24C1250.71 243.64 1251.04 242.84 1251.04 241.989C1251.04 241.135 1250.71 240.336 1250.11 239.737Z" fill="black"/>
</svg>
