<svg width="274" height="270" viewBox="0 0 274 270" fill="none" xmlns="http://www.w3.org/2000/svg">
<g clip-path="url(#clip0)">
<path d="M32.91 147.45C32.3811 143.108 32.1094 138.794 32.1094 135C32.1094 78.362 79.523 31.6406 137 31.6406C163.81 31.6406 188.91 42.2926 207.373 58.9039L198.114 68.186C196.028 70.2418 195.225 73.2472 196.028 76.0961C196.992 78.7843 199.239 80.8422 202.128 81.4746C203.744 81.7939 256.829 98.6504 253.449 97.9809C257.749 99.3919 264.108 94.8724 262.923 88.6473C262.597 87.0529 250.844 28.9442 251.523 32.273C250.882 29.4262 248.793 27.0531 245.904 26.2621C243.176 25.4711 240.124 26.2621 238.038 28.3179L230.172 35.9109C205.929 13.6059 172.64 0 137 0C61.7039 0 0 60.8031 0 135V135.315C0 139.775 0.206955 143.221 0.447357 145.858C0.767197 149.352 3.38026 152.213 6.87132 152.903L23.3629 156.151C28.7312 157.21 33.5581 152.775 32.91 147.45Z" fill="#00C213"/>
<path d="M267.177 117.085L250.637 113.764C245.263 112.685 240.402 117.124 241.063 122.474C241.636 127.09 241.891 131.578 241.891 135C241.891 191.636 194.477 238.359 137 238.359C110.19 238.359 85.0898 227.707 66.6269 210.937L75.8856 201.814C77.9718 199.758 78.7746 196.753 77.9718 193.904C77.0081 191.214 74.7609 189.158 71.8719 188.525C70.256 188.204 17.171 171.35 20.5512 172.019C17.8211 171.545 15.091 172.336 13.3266 174.234C11.3992 175.974 10.5965 178.821 11.0773 181.353C11.4034 182.945 23.158 240.526 22.4786 237.198C23.1183 240.046 25.2067 242.42 28.0957 243.208C31.4467 244.037 34.2437 243.035 35.9621 241.153L43.6696 233.56C67.9105 255.867 101.199 270 137 270C212.296 270 274 209.197 274 135V134.524C274 131.018 273.87 127.576 273.574 124.154C273.268 120.659 270.666 117.787 267.177 117.085Z" fill="#00C213"/>
</g>
<defs>
<clipPath id="clip0">
<rect width="274" height="270" fill="white"/>
</clipPath>
</defs>
</svg>
